<svg id="Layer_1" data-name="Layer 1" xmlns="http://www.w3.org/2000/svg" viewBox="0 0 24 24"><defs><style>.cls-1{fill:#fff;}</style></defs><path class="cls-1" d="M12,7.87a4.63,4.63,0,1,0,4.63,4.63A4.62,4.62,0,0,0,12,7.87Zm0,7.63a3,3,0,0,1,0-6h0a3,3,0,1,1,0,6Z"/><circle class="cls-1" cx="16.8" cy="7.7" r="1.08"/><path class="cls-1" d="M20.53,6.61A4.59,4.59,0,0,0,17.89,4a6.25,6.25,0,0,0-2.18-.42c-1-.05-1.27-.06-3.71-.06s-2.76,0-3.71.06A6.31,6.31,0,0,0,6.1,4,4.57,4.57,0,0,0,3.47,6.61a6.8,6.8,0,0,0-.42,2.18c0,1,0,1.27,0,3.71s0,2.76,0,3.71a6.81,6.81,0,0,0,.42,2.19A4.59,4.59,0,0,0,6.11,21a6.24,6.24,0,0,0,2.18.45c1,0,1.27.06,3.71.06s2.75,0,3.71-.06a6.31,6.31,0,0,0,2.19-.42,4.6,4.6,0,0,0,2.63-2.63A6.81,6.81,0,0,0,21,16.24c0-1,.05-1.26.05-3.71S21,9.78,21,8.82A6.71,6.71,0,0,0,20.53,6.61Zm-1.22,9.53A5.11,5.11,0,0,1,19,17.83a3,3,0,0,1-1.71,1.71,5,5,0,0,1-1.67.31c-.95,0-1.22,0-3.66,0s-2.69,0-3.65,0a5,5,0,0,1-1.67-.31,3,3,0,0,1-1.72-1.71,5,5,0,0,1-.31-1.67c-.05-.95-.06-1.22-.06-3.66s0-2.68.06-3.65a4.86,4.86,0,0,1,.31-1.69A3,3,0,0,1,6.64,5.45a5,5,0,0,1,1.67-.31c.95,0,1.22-.06,3.65-.06s2.69,0,3.66.06a5,5,0,0,1,1.67.31A3,3,0,0,1,19,7.16a5.3,5.3,0,0,1,.31,1.67c0,.95.05,1.22.05,3.66s0,2.69,0,3.65Z"/></svg>