<svg id="Layer_1" data-name="Layer 1" xmlns="http://www.w3.org/2000/svg" viewBox="0 0 24 24"><defs><style>.cls-1{fill:#fff;}</style></defs><path class="cls-1" d="M20.42,6.93A9.72,9.72,0,0,0,12,2.08,9.72,9.72,0,0,0,3.58,6.93a9.52,9.52,0,0,0-1.31,4.88,9.72,9.72,0,0,0,4.85,8.42A9.52,9.52,0,0,0,12,21.54a9.52,9.52,0,0,0,4.88-1.31,9.67,9.67,0,0,0,4.85-8.42A9.52,9.52,0,0,0,20.42,6.93ZM12,3.7a7.92,7.92,0,0,1,5.18,1.86,9.7,9.7,0,0,1-4,2.83A20.51,20.51,0,0,0,10,4,7.46,7.46,0,0,1,12,3.7ZM5.69,6.75A8,8,0,0,1,8.32,4.59,19.64,19.64,0,0,1,11.57,9a21.45,21.45,0,0,1-6.17.88c-.55,0-1,0-1.26,0A8.21,8.21,0,0,1,5.69,6.75Zm-1.8,5.06a1.34,1.34,0,0,1,0-.19c0-.08,0-.15,0-.2l1.13,0a23.71,23.71,0,0,0,7.23-1.07q.27.54.57,1.23a9.49,9.49,0,0,0-3.95,2.08,11.05,11.05,0,0,0-3,3.48A7.85,7.85,0,0,1,3.89,11.81ZM12,19.92a7.86,7.86,0,0,1-5-1.71A11.06,11.06,0,0,1,9.73,14.9a8.36,8.36,0,0,1,3.61-2,28.48,28.48,0,0,1,1.52,6.44A8,8,0,0,1,12,19.92Zm6.89-3.85a8.15,8.15,0,0,1-2.51,2.55A28.44,28.44,0,0,0,15,12.71c.9-.07,1.71-.1,2.43-.1s1.64,0,2.58.1A7.8,7.8,0,0,1,18.89,16.07Zm-1.21-4.86c-1.13,0-2.17,0-3.13.13-.2-.53-.43-1.05-.66-1.57a9.64,9.64,0,0,0,4.28-3.21,7.8,7.8,0,0,1,1.9,4.71C19.28,11.23,18.49,11.21,17.68,11.21Z"/></svg>