<svg id="Layer_1" data-name="Layer 1" xmlns="http://www.w3.org/2000/svg" viewBox="0 0 24 24"><defs><style>.cls-1{fill:#fff;}</style></defs><path class="cls-1" d="M5.05,7.64A2.32,2.32,0,1,1,7.37,5.32,2.32,2.32,0,0,1,5.05,7.64Zm0-3.87a1.55,1.55,0,1,0,0,3.09,1.55,1.55,0,0,0,0-3.09Z"/><path class="cls-1" d="M5.05,8A2.67,2.67,0,1,1,7.72,5.32,2.68,2.68,0,0,1,5.05,8Zm0-4.64a2,2,0,1,0,2,2A2,2,0,0,0,5.05,3.35Zm0,3.86A1.9,1.9,0,1,1,6.94,5.32,1.9,1.9,0,0,1,5.05,7.21Zm0-3.09a1.2,1.2,0,1,0,0,2.39,1.2,1.2,0,0,0,0-2.39Z"/><path class="cls-1" d="M7,21.54H3.12a.39.39,0,0,1-.39-.39V9.57a.38.38,0,0,1,.39-.39H7a.39.39,0,0,1,.39.39V21.15A.39.39,0,0,1,7,21.54ZM3.5,20.77H6.59V10H3.5Z"/><path class="cls-1" d="M7,21.89H3.12a.74.74,0,0,1-.74-.74V9.57a.74.74,0,0,1,.74-.74H7a.74.74,0,0,1,.74.74V21.15A.74.74,0,0,1,7,21.89ZM3.12,9.53l0,11.62,3.9,0a0,0,0,0,0,0,0V9.57ZM6.94,21.12H3.15V9.6H6.94Zm-3.09-.7H6.24V10.3H3.85Z"/><path class="cls-1" d="M20.88,21.54H17a.4.4,0,0,1-.39-.39V14.2a1.8,1.8,0,0,0-1-1.8,2,2,0,0,0-2.09.43v8.32a.39.39,0,0,1-.38.39H9.3a.39.39,0,0,1-.39-.39V9.57a.38.38,0,0,1,.39-.39h3.86a.38.38,0,0,1,.37.29,5.86,5.86,0,0,1,5-.82c1.24.43,2.73,1.6,2.78,4.77v7.73A.38.38,0,0,1,20.88,21.54Zm-3.47-.77H20.5V13.43c0-2.15-.82-3.56-2.26-4a5,5,0,0,0-4.78,1.2.38.38,0,0,1-.43.12.39.39,0,0,1-.26-.36V10H9.68V20.77h3.09V12.66a.36.36,0,0,1,.12-.28,2.81,2.81,0,0,1,3-.69,2.54,2.54,0,0,1,1.48,2.51v6.57Z"/><path class="cls-1" d="M20.88,21.89H17a.74.74,0,0,1-.74-.74V14.2a1.47,1.47,0,0,0-.79-1.48,1.65,1.65,0,0,0-1.6.27v8.16a.74.74,0,0,1-.73.74H9.3a.74.74,0,0,1-.74-.74V9.57a.74.74,0,0,1,.74-.74h3.86a.76.76,0,0,1,.46.16,6.16,6.16,0,0,1,5-.67c1.35.46,3,1.72,3,5.1v7.73A.74.74,0,0,1,20.88,21.89ZM15,11.91a2.25,2.25,0,0,1,.81.16A2.16,2.16,0,0,1,17,14.2v7l3.9,0a0,0,0,0,0,0,0V13.42c0-2.34-.91-3.88-2.55-4.44a5.53,5.53,0,0,0-4.63.77l-.42.3-.13-.49-3.89,0,0,11.62,3.9,0,0-8.52.12-.11A2.55,2.55,0,0,1,15,11.91Zm5.89,9.21H17.06V14.2A2.21,2.21,0,0,0,15.79,12a2.48,2.48,0,0,0-2.66.62v8.49H9.33V9.6h3.79v.74a5.48,5.48,0,0,1,5.23-1.29c1.12.38,2.46,1.45,2.5,4.37Zm-3.09-.7h2.39v-7c0-1.39-.39-3.16-2-3.72a4.64,4.64,0,0,0-4.39,1.09.72.72,0,0,1-.81.23.73.73,0,0,1-.5-.69v0H10V20.42h2.39V12.66a.75.75,0,0,1,.22-.53,3.19,3.19,0,0,1,3.43-.77,2.9,2.9,0,0,1,1.69,2.84Z"/></svg>