<svg id="Layer_1" data-name="Layer 1" xmlns="http://www.w3.org/2000/svg" viewBox="0 0 24 24"><defs><style>.cls-1{fill:#fff;}</style></defs><path class="cls-1" d="M10.06,21.34a8.92,8.92,0,0,1-8-4.29,11,11,0,0,1-1.5-4.26A1.51,1.51,0,0,1,1,11.52a1.4,1.4,0,0,1,1.38-.29l1.31.45a9,9,0,0,1,.25-6,1.44,1.44,0,0,1,1.32-.91h0a1.41,1.41,0,0,1,1.3,1c.28.85,1.67,1.83,3.64,2.61a6.19,6.19,0,0,1,1-3.45,4.54,4.54,0,0,1,3.91-1.86A5.3,5.3,0,0,1,19.43,5a6.64,6.64,0,0,1,1.32,2.79l1.66.42a1.48,1.48,0,0,1,1.08,1.27h0a1.51,1.51,0,0,1-.73,1.48L20.86,12a11.43,11.43,0,0,1-1.4,3.78,12,12,0,0,1-3.34,3.7A10.25,10.25,0,0,1,10.06,21.34Zm-8-8.51a10.48,10.48,0,0,0,1.27,3.38,7.38,7.38,0,0,0,6.69,3.53,8.69,8.69,0,0,0,5.13-1.58,10.4,10.4,0,0,0,2.89-3.22,9.58,9.58,0,0,0,1.25-3.57l.06-.4,2.35-1.33L19.37,9l-.09-.51A5.46,5.46,0,0,0,18.2,6a3.75,3.75,0,0,0-3.07-1.3,2.92,2.92,0,0,0-2.6,1.18,5.63,5.63,0,0,0-.64,3.6L12,10.67l-1.18-.38C9.46,9.84,6.28,8.64,5.27,6.7a7.49,7.49,0,0,0,.19,5.21c.1.26.22.5.33.73l.89,1.75Z"/></svg>